<svg width="24" height="25" viewBox="0 0 24 25" fill="none" xmlns="http://www.w3.org/2000/svg">
<path d="M12.0048 3.50315C13.602 3.50315 15.1991 3.49855 16.7962 3.50392C19.2425 3.51236 20.9877 5.26206 20.9954 7.71547C21.0015 9.81204 21.0015 11.9078 20.9954 14.0044C20.9885 16.4701 19.2303 18.2282 16.7663 18.2382C15.3863 18.2436 14.0062 18.229 12.6262 18.249C12.3892 18.252 12.1207 18.3303 11.9228 18.46C10.5105 19.3809 9.11053 20.3202 7.71285 21.2618C7.39527 21.4759 7.07538 21.5941 6.71254 21.4061C6.34739 21.2165 6.26071 20.882 6.26378 20.5005C6.26915 19.8229 6.25841 19.1453 6.26915 18.4684C6.27222 18.2467 6.21928 18.1431 5.97995 18.0717C4.15652 17.5253 3.01889 16.0097 3.00892 14.1126C2.99741 11.9524 2.99665 9.79209 3.00892 7.63183C3.02196 5.27741 4.78172 3.52157 7.13675 3.50545C8.75919 3.49471 10.3824 3.50315 12.0048 3.50315ZM12.0187 8.41689C10.4093 8.41689 8.79908 8.42073 7.18968 8.41459C6.79002 8.41305 6.48854 8.55502 6.33589 8.93259C6.10498 9.50354 6.51999 10.043 7.19352 10.0446C9.23787 10.0484 11.2815 10.0461 13.3258 10.0461C14.4888 10.0461 15.6509 10.043 16.8139 10.0476C17.212 10.0492 17.515 9.90106 17.6677 9.5258C17.894 8.96942 17.4943 8.4238 16.8476 8.42073C15.2382 8.41305 13.6281 8.41842 12.0187 8.41766V8.41689ZM11.9933 13.3253C13.0665 13.3253 14.1405 13.3337 15.2137 13.3214C15.7453 13.3153 16.0828 12.9784 16.082 12.5003C16.082 12.023 15.7437 11.7029 15.2114 11.6792C15.1093 11.6746 15.0073 11.6776 14.9045 11.6776C13.1663 11.6776 11.4287 11.6776 9.69047 11.6776C9.37135 11.6776 9.0507 11.6638 8.73234 11.683C8.16085 11.7183 7.81181 12.1833 7.94068 12.7121C8.03274 13.0897 8.36413 13.3206 8.84894 13.3237C9.89682 13.3291 10.9447 13.3253 11.9926 13.3253H11.9933Z" fill="#9E9E9E"/>
</svg>
