<svg width="24" height="25" viewBox="0 0 24 25" fill="none" xmlns="http://www.w3.org/2000/svg">
<g id="Solid / exclamation triangle">
<path id="Vector" d="M22.7 18L14.6 4C13.8 2.6 11.9 2.1 10.5 2.9C10 3.2 9.60001 3.6 9.40001 4L1.30001 18C0.500011 19.4 1.00001 21.3 2.40001 22.1C2.90001 22.4 3.40001 22.5 3.90001 22.5H20C21.7 22.5 23 21.1 23 19.5C23.1 18.9 22.9 18.4 22.7 18ZM12 18.5C11.4 18.5 11 18.1 11 17.5C11 16.9 11.4 16.5 12 16.5C12.6 16.5 13 16.9 13 17.5C13 18.1 12.6 18.5 12 18.5ZM13 13.5C13 14.1 12.6 14.5 12 14.5C11.4 14.5 11 14.1 11 13.5V9.5C11 8.9 11.4 8.5 12 8.5C12.6 8.5 13 8.9 13 9.5V13.5Z" fill="#FBBF24"/>
</g>
</svg>
